<?xml version="1.0" standalone="no"?><!DOCTYPE svg PUBLIC "-//W3C//DTD SVG 1.1//EN" "http://www.w3.org/Graphics/SVG/1.1/DTD/svg11.dtd"><svg t="1712495104281" class="icon" viewBox="0 0 1024 1024" version="1.1" xmlns="http://www.w3.org/2000/svg" p-id="4298" xmlns:xlink="http://www.w3.org/1999/xlink" width="200" height="200"><path d="M881.664 699.904c-11.264 0-20.48 9.216-20.48 20.48V875.52c0 56.832-46.592 103.424-103.424 103.424H174.08c-56.832 0-103.424-46.592-103.424-103.424V150.016C70.656 92.672 117.248 46.08 174.08 46.08h583.68c56.832 0 103.424 46.592 103.424 103.424V414.72c0 11.264 9.216 20.48 20.48 20.48s20.48-9.216 20.48-20.48V150.016C902.144 70.144 837.12 5.12 757.76 5.12H174.08C94.208 5.12 29.696 70.144 29.696 150.016V875.52c0 79.872 65.024 144.384 144.384 144.384h583.68c79.872 0 144.384-65.024 144.384-144.384v-155.136c0-11.264-9.216-20.48-20.48-20.48z" p-id="4299"></path><path d="M672.768 281.088H257.536c-11.264 0-20.48 9.216-20.48 20.48s9.216 20.48 20.48 20.48h415.232c11.264 0 20.48-9.216 20.48-20.48s-9.216-20.48-20.48-20.48zM672.768 485.376H257.536c-11.264 0-20.48 9.216-20.48 20.48s9.216 20.48 20.48 20.48h415.232c11.264 0 20.48-9.216 20.48-20.48s-9.216-20.48-20.48-20.48zM993.792 398.336c-8.704-7.168-21.504-5.632-28.672 3.072l-394.24 486.4c-7.168 8.704-5.632 21.504 3.072 28.672 3.584 3.072 8.192 4.608 12.8 4.608 6.144 0 11.776-2.56 15.872-7.68l394.24-486.4c6.656-8.704 5.632-21.504-3.072-28.672z" p-id="4300"></path></svg>